<?xml version="1.0" encoding="utf-8"?>
<!-- Generator: Adobe Illustrator 23.0.2, SVG Export Plug-In . SVG Version: 6.00 Build 0)  -->
<svg version="1.1" id="Layer_1" xmlns="http://www.w3.org/2000/svg" xmlns:xlink="http://www.w3.org/1999/xlink" x="0px" y="0px"
	 viewBox="0 0 998 387" style="enable-background:new 0 0 998 387;" xml:space="preserve">
<title>Logo White</title>
<desc>Created with Sketch.</desc>
<g id="Brand-Assets">
	<g id="Logo-White">
		<g>
			<path id="Fill-1" d="M213.2,168.2L192,322.7c-3.1,7.4-24.1,19.8-57.1,19.8c-33.7,0-57.4-13.6-60.4-26.1c0,0-2,0-3.8,0
				c0,0,0,0,0,0h-3.5H43.2H32.4c0.1,4.5,0.8,9.2,2,13.7c0,0.2,0,0.4,0.1,0.6c6.8,32.3,49.1,55.7,100.4,55.7
				c56.9,0,100.3-27.3,101.4-63.6c0,0,26.4-184.8,26.3-184.7C251.3,152.5,213.2,168.3,213.2,168.2"/>
			<path id="Fill-3" d="M134.9,0C58,0,0,35,0,81.4c0,5.2,28.2,203.9,28.2,203.9c1.6,11.2,2.5,16.9,2.5,16.9h32.8c0.1,0,0.2,0,0.4,0
				c3.6,0,8.5,0.1,8.5,0c-0.1-0.1-15.1-128.4-21.3-173.3c0,0,0,0,0,0l-5.7-41.1v0l-1.2-8.6c3.5-15,38.7-35.2,90.6-35.2
				c53.2,0,88.8,21.1,90.8,36.2c0.1,0.4,0.1,0.8,0.1,1.2c0,1.2-0.3,2.6-0.9,4.1v0c-3.1,7.6-13.5,15.8-27.7,21.9
				c-12.2,5.2-32.9,11.4-62.3,11.4c-27.3,0-49.3-6.7-62.2-10.7c-2.8-0.9-8.3-2.3-8.3-2.3c-0.1,0,5.8,47.4,6,47.5
				c22.8,8.4,43.6,9.5,64.6,9.5c38,0,72.9-8.8,98.1-24.7c0,0,0,0,0,0c17.4-11,29.2-24.9,34.1-40.2c0.2-0.5,0.3-1.1,0.4-1.6l2.1-14.9
				h0.2C269.7,35,211.7,0,134.9,0"/>
			<path id="Fill-5" d="M32.4,316.4L32.4,316.4C32.4,316.5,32.4,316.5,32.4,316.4"/>
			<path id="Fill-7" d="M32.4,316.4L32.4,316.4C32.4,316.3,32.4,316.4,32.4,316.4"/>
			<path id="Fill-9" d="M454.5,219.9c-25.7,0-45.4-20.4-45.4-46.8c0-26.4,19.7-46.8,45.4-46.8s46.1,20.4,46.1,46.8
				C500.6,199.5,480.2,219.9,454.5,219.9 M457.2,91.9c-23.4,0-38.4,11.4-47.7,21.4l-17.4-17.7h-29.4v32.1h13.7v206.5h35.7v-98.2
				c6.7,6.7,21.7,18.4,45.1,18.4c44.4,0,79.4-37.1,79.4-81.2C536.7,128.7,501.6,91.9,457.2,91.9"/>
			<polygon id="Fill-11" points="903.1,95.6 860.1,212.5 817,95.6 779.6,95.6 839.4,250.6 880.7,250.6 940.2,95.6 			"/>
			<path id="Fill-13" d="M708.5,219.9c-25.7,0-44.7-21.7-44.7-46.8c0-25.1,18.7-46.4,44.7-46.4c25.7,0,44.4,21.4,44.4,46.4
				C752.9,198.1,733.9,219.9,708.5,219.9 M708.5,92.2c-44.1,0-81.1,35.1-81.1,80.8c0,45.8,37,81.2,81.1,81.2
				c43.7,0,80.8-35.4,80.8-81.2C789.3,127.3,752.3,92.2,708.5,92.2"/>
			<path id="Fill-15" d="M630.4,117.8c3.1-4.2,6.6-8.3,10.4-12c2.2-2.2,4.6-4.3,7-6.3c-3.7-1.9-7.6-3.5-11.6-4.8
				c-8.3-2.7-15.7-2.1-15.7-2.1c-16.7,0.3-30.3,9.2-37.9,20l-17-17h-28.7v32.1h13.7v122.9h35.7v-95.5c0-14.4,14-24.7,28.7-24.7
				c2,0,4,0.2,6.1,0.6c0.4,0.1,0.7,0.2,1.1,0.3c0,0,0,0,0,0c2.3-4.5,4.9-8.8,7.8-12.8C630.1,118.1,630.2,117.9,630.4,117.8"/>
			<polygon id="Fill-17" points="955.6,95.6 943.2,127.7 956.5,127.7 956.5,214.9 948.4,214.9 937.8,250.6 956.5,250.6 991.5,250.6 
				992.2,250.6 992.2,108.3 979.6,95.6 			"/>
			<path id="Fill-19" d="M971.5,67.1c14,0,25.7-11.4,25.7-25.4c0-14-11.7-25.7-25.7-25.7c-14,0-25.4,11.7-25.4,25.7
				C946.2,55.7,957.5,67.1,971.5,67.1"/>
		</g>
	</g>
</g>
</svg>
